<?xml version="1.0" encoding="UTF-8"?>
<svg id="_图层_2" data-name="图层 2" xmlns="http://www.w3.org/2000/svg" viewBox="0 0 340.16 340.16">
  <defs>
    <style>
      .cls-1 {
        fill: #939280;
      }
    </style>
  </defs>
  <g id="_图层_1-2" data-name="图层 1">
    <path class="cls-1" d="M0,0v340.16h170.08l170.08-170.08V0H0ZM281.08,171.85c-14.9,7.21-35.5,10.82-61.79,10.82h-66.91v12.44l47.86,30.54H36.82l47.96-30.54v-69.98l-47.96-30.15h172.79c27.44,0,49.94,4.4,67.49,13.21,17.55,8.81,26.33,20.1,26.33,33.89,0,12.64-7.45,22.56-22.35,29.77ZM202.72,119.49h-50.35v38.67h49.78c11.04,0,18.7-1.37,22.97-4.12,4.28-2.74,6.41-7.66,6.41-14.74,0-13.21-9.61-19.82-28.81-19.82Z"/>
  </g>
</svg>